<svg width="40" height="40" viewBox="0 0 40 40" fill="none" xmlns="http://www.w3.org/2000/svg">
<path d="M9.16683 16.6668C9.37041 16.6668 9.55968 16.5726 9.9382 16.3842L12.9807 14.8695C14.327 14.1993 15.0002 13.8642 15.0002 13.3335V6.66683M9.16683 16.6668C8.96325 16.6668 8.77398 16.5726 8.39546 16.3842L5.35296 14.8695C4.00666 14.1993 3.3335 13.8642 3.3335 13.3335V6.66683M9.16683 16.6668V10.0002M15.0002 6.66683C15.0002 6.13615 14.327 5.80103 12.9807 5.1308L9.9382 3.61615C9.55968 3.42771 9.37041 3.3335 9.16683 3.3335C8.96325 3.3335 8.77398 3.42771 8.39546 3.61615L5.35296 5.1308C4.00665 5.80103 3.3335 6.13615 3.3335 6.66683M15.0002 6.66683C15.0002 7.19751 14.327 7.53263 12.9807 8.20286L9.9382 9.71751C9.55968 9.90595 9.37041 10.0002 9.16683 10.0002M3.3335 6.66683C3.3335 7.19751 4.00665 7.53263 5.35296 8.20286L8.39546 9.71751C8.77398 9.90595 8.96325 10.0002 9.16683 10.0002" stroke="#FF2F00" stroke-width="2.5" stroke-linejoin="round"/>
<path d="M30.8333 16.6668C31.037 16.6668 31.2262 16.5726 31.6047 16.3842L34.6472 14.8695C35.9935 14.1993 36.6667 13.8642 36.6667 13.3335V6.66683M30.8333 16.6668C30.6297 16.6668 30.4405 16.5726 30.062 16.3842L27.0195 14.8695C25.6732 14.1993 25 13.8642 25 13.3335V6.66683M30.8333 16.6668V10.0002M36.6667 6.66683C36.6667 6.13615 35.9935 5.80103 34.6472 5.1308L31.6047 3.61615C31.2262 3.42771 31.037 3.3335 30.8333 3.3335C30.6297 3.3335 30.4405 3.42771 30.062 3.61615L27.0195 5.1308C25.6732 5.80103 25 6.13615 25 6.66683M36.6667 6.66683C36.6667 7.19751 35.9935 7.53263 34.6472 8.20286L31.6047 9.71751C31.2262 9.90595 31.037 10.0002 30.8333 10.0002M25 6.66683C25 7.19751 25.6732 7.53263 27.0195 8.20286L30.062 9.71751C30.4405 9.90595 30.6297 10.0002 30.8333 10.0002" stroke="#FF2F00" stroke-width="2.5" stroke-linejoin="round"/>
<path d="M19.1665 10H20.8332" stroke="#FF2F00" stroke-width="2.5" stroke-linecap="round"/>
<path d="M3.3335 20V25.8333C3.3335 28.1742 3.3335 29.3445 3.89526 30.1852C4.13846 30.5492 4.45096 30.8617 4.81493 31.1048C5.65568 31.6667 6.82606 31.6667 9.16683 31.6667" stroke="#FF2F00" stroke-width="2.5" stroke-linecap="round"/>
<path d="M36.6668 20V25.8333C36.6668 28.1742 36.6668 29.3445 36.105 30.1852C35.8618 30.5492 35.5493 30.8617 35.1853 31.1048C34.3447 31.6667 33.1743 31.6667 30.8335 31.6667" stroke="#FF2F00" stroke-width="2.5" stroke-linecap="round"/>
<path d="M19.9998 36.6668C20.2035 36.6668 20.3927 36.5727 20.7712 36.3842L23.8137 34.8695C25.16 34.1993 25.8332 33.8642 25.8332 33.3335V26.6668M19.9998 36.6668C19.7962 36.6668 19.607 36.5727 19.2285 36.3842L16.186 34.8695C14.8397 34.1993 14.1665 33.8642 14.1665 33.3335V26.6668M19.9998 36.6668V30.0002M25.8332 26.6668C25.8332 26.1362 25.16 25.801 23.8137 25.1308L20.7712 23.6162C20.3927 23.4277 20.2035 23.3335 19.9998 23.3335C19.7962 23.3335 19.607 23.4277 19.2285 23.6162L16.186 25.1308C14.8397 25.801 14.1665 26.1362 14.1665 26.6668M25.8332 26.6668C25.8332 27.1975 25.16 27.5327 23.8137 28.2028L20.7712 29.7175C20.3927 29.906 20.2035 30.0002 19.9998 30.0002M14.1665 26.6668C14.1665 27.1975 14.8397 27.5327 16.186 28.2028L19.2285 29.7175C19.607 29.906 19.7962 30.0002 19.9998 30.0002" stroke="#FF2F00" stroke-width="2.5" stroke-linejoin="round"/>
</svg>
