<svg width="40" height="41" viewBox="0 0 40 41" fill="none" xmlns="http://www.w3.org/2000/svg">
<path d="M8.3335 27.1668L16.6668 22.1668M23.3335 18.8335L31.6668 13.8335M20.0002 8.8335V17.1668M20.0002 23.8335V32.1668M8.3335 13.8335L16.6668 18.8335M23.3335 22.1668L31.6668 27.1668" stroke="#FF2F00" stroke-width="2.5" stroke-linejoin="round"/>
<path d="M34.1668 15.5002V24.6668M22.5002 34.6668L31.6668 29.6668M7.50016 29.6668L17.5002 34.6668M5.8335 25.5002V15.5002M7.50016 11.3335L17.5002 6.3335M32.5002 11.3335L22.5002 6.3335" stroke="#FF2F00" stroke-width="2.5" stroke-linejoin="round"/>
<path d="M20 8.8335C21.3807 8.8335 22.5 7.71421 22.5 6.3335C22.5 4.95278 21.3807 3.8335 20 3.8335C18.6193 3.8335 17.5 4.95278 17.5 6.3335C17.5 7.71421 18.6193 8.8335 20 8.8335Z" stroke="#FF2F00" stroke-width="2.5" stroke-linejoin="round"/>
<path d="M20 37.1665C21.3807 37.1665 22.5 36.0472 22.5 34.6665C22.5 33.2858 21.3807 32.1665 20 32.1665C18.6193 32.1665 17.5 33.2858 17.5 34.6665C17.5 36.0472 18.6193 37.1665 20 37.1665Z" stroke="#FF2F00" stroke-width="2.5" stroke-linejoin="round"/>
<path d="M5.8335 15.5C7.21421 15.5 8.3335 14.3807 8.3335 13C8.3335 11.6193 7.21421 10.5 5.8335 10.5C4.45278 10.5 3.3335 11.6193 3.3335 13C3.3335 14.3807 4.45278 15.5 5.8335 15.5Z" stroke="#FF2F00" stroke-width="2.5" stroke-linejoin="round"/>
<path d="M34.1665 15.5C35.5472 15.5 36.6665 14.3807 36.6665 13C36.6665 11.6193 35.5472 10.5 34.1665 10.5C32.7858 10.5 31.6665 11.6193 31.6665 13C31.6665 14.3807 32.7858 15.5 34.1665 15.5Z" stroke="#FF2F00" stroke-width="2.5" stroke-linejoin="round"/>
<path d="M34.1665 30.5C35.5472 30.5 36.6665 29.3807 36.6665 28C36.6665 26.6193 35.5472 25.5 34.1665 25.5C32.7858 25.5 31.6665 26.6193 31.6665 28C31.6665 29.3807 32.7858 30.5 34.1665 30.5Z" stroke="#FF2F00" stroke-width="2.5" stroke-linejoin="round"/>
<path d="M5.8335 30.5C7.21421 30.5 8.3335 29.3807 8.3335 28C8.3335 26.6193 7.21421 25.5 5.8335 25.5C4.45278 25.5 3.3335 26.6193 3.3335 28C3.3335 29.3807 4.45278 30.5 5.8335 30.5Z" stroke="#FF2F00" stroke-width="2.5" stroke-linejoin="round"/>
<path d="M19.9998 16.75L23.3332 18.625V22.375L19.9998 24.25L16.6665 22.375V18.625L19.9998 16.75Z" stroke="#FF2F00" stroke-width="2.5" stroke-linejoin="round"/>
</svg>
