<svg width="40" height="41" viewBox="0 0 40 41" fill="none" xmlns="http://www.w3.org/2000/svg">
<path d="M12.5 32.9998C12.5 31.3905 13.0476 29.7625 14.3849 28.8672C15.9887 27.7933 17.9207 27.1665 20 27.1665C22.0793 27.1665 24.0113 27.7933 25.6152 28.8672C26.9525 29.7625 27.5 31.3905 27.5 32.9998" stroke="#FF2F00" stroke-width="2.5" stroke-linecap="round" stroke-linejoin="round"/>
<path d="M20.0002 22.9998C22.3013 22.9998 24.1668 21.1344 24.1668 18.8332C24.1668 16.532 22.3013 14.6665 20.0002 14.6665C17.699 14.6665 15.8335 16.532 15.8335 18.8332C15.8335 21.1344 17.699 22.9998 20.0002 22.9998Z" stroke="#FF2F00" stroke-width="2.5" stroke-linecap="round" stroke-linejoin="round"/>
<path d="M29.1665 18.8335C31.0167 18.8335 32.7357 19.4617 34.1622 20.5375C35.3713 21.4495 35.8332 22.992 35.8332 24.5065V24.6668" stroke="#FF2F00" stroke-width="2.5" stroke-linecap="round" stroke-linejoin="round"/>
<path d="M29.1668 14.6667C31.0078 14.6667 32.5002 13.1743 32.5002 11.3333C32.5002 9.49238 31.0078 8 29.1668 8C27.3259 8 25.8335 9.49238 25.8335 11.3333C25.8335 13.1743 27.3259 14.6667 29.1668 14.6667Z" stroke="#FF2F00" stroke-width="2.5" stroke-linecap="round" stroke-linejoin="round"/>
<path d="M10.8332 18.8335C8.98295 18.8335 7.26394 19.4617 5.83744 20.5375C4.62827 21.4495 4.1665 22.992 4.1665 24.5065V24.6668" stroke="#FF2F00" stroke-width="2.5" stroke-linecap="round" stroke-linejoin="round"/>
<path d="M10.8333 14.6667C12.6743 14.6667 14.1667 13.1743 14.1667 11.3333C14.1667 9.49238 12.6743 8 10.8333 8C8.99238 8 7.5 9.49238 7.5 11.3333C7.5 13.1743 8.99238 14.6667 10.8333 14.6667Z" stroke="#FF2F00" stroke-width="2.5" stroke-linecap="round" stroke-linejoin="round"/>
</svg>
